<?xml version="1.0" encoding="UTF-8"?>
<svg viewBox="0 0 412.77 105.97" width="412.77" height="105.97" xmlns="http://www.w3.org/2000/svg"><svg viewBox="-51.76537180435968 -50 103.53074360871936 100" width="96.79" height="93.49" style="display: block;" x="0.00" y="9.62"><path d="M0.00 -18.00L15.59 -9.00L15.59 9.00L0.00 18.00L-15.59 9.00L-15.59 -9.00Z" fill="rgba(244,244,244,1.0000)"/><path d="M31.18 -18.00L46.77 -9.00L46.77 9.00L31.18 18.00L15.59 9.00L15.59 -9.00Z" fill="#B5F23A"/><path d="M15.59 -45.00L31.18 -36.00L31.18 -18.00L15.59 -9.00L0.00 -18.00L-0.00 -36.00Z" fill="rgba(244,244,244,1.0000)"/><path d="M-15.59 -45.00L0.00 -36.00L0.00 -18.00L-15.59 -9.00L-31.18 -18.00L-31.18 -36.00Z" fill="#2DD4FF"/><path d="M-31.18 -18.00L-15.59 -9.00L-15.59 9.00L-31.18 18.00L-46.77 9.00L-46.77 -9.00Z" fill="rgba(244,244,244,1.0000)"/><path d="M-15.59 9.00L0.00 18.00L0.00 36.00L-15.59 45.00L-31.18 36.00L-31.18 18.00Z" fill="#FF3D8A"/><path d="M15.59 9.00L31.18 18.00L31.18 36.00L15.59 45.00L0.00 36.00L-0.00 18.00Z" fill="rgba(244,244,244,1.0000)"/><path d="M0.00 -18.00L15.59 -9.00L15.59 9.00L0.00 18.00L-15.59 9.00L-15.59 -9.00ZM31.18 -18.00L46.77 -9.00L46.77 9.00L31.18 18.00L15.59 9.00L15.59 -9.00ZM15.59 -45.00L31.18 -36.00L31.18 -18.00L15.59 -9.00L0.00 -18.00L-0.00 -36.00ZM-15.59 -45.00L0.00 -36.00L0.00 -18.00L-15.59 -9.00L-31.18 -18.00L-31.18 -36.00ZM-31.18 -18.00L-15.59 -9.00L-15.59 9.00L-31.18 18.00L-46.77 9.00L-46.77 -9.00ZM-15.59 9.00L0.00 18.00L0.00 36.00L-15.59 45.00L-31.18 36.00L-31.18 18.00ZM15.59 9.00L31.18 18.00L31.18 36.00L15.59 45.00L0.00 36.00L-0.00 18.00Z" fill="none" stroke="rgba(68,68,68,1.0000)" stroke-width="6" stroke-linejoin="miter"/></svg><svg viewBox="0 0 396 114" width="294.20" height="84.70" style="display: block;" x="118.57" y="21.27"><path d="M0 0h14v90h-14zM22 24h14v66h-14zM44 24h56v14h-56zM44 24h14v66h-14zM86 24h14v66h-14zM44 76h56v14h-56zM86 90h14v24h-14zM44 100h56v14h-56zM108 0h14v90h-14zM108 24h56v14h-56zM150 24h14v66h-14zM187 8h14v82h-14zM172 24h44v14h-44zM224 24h14v66h-14zM224 24h56v14h-56zM266 24h14v66h-14zM288 24h14v66h-14zM288 24h56v14h-56zM288 50h56v14h-56zM330 24h14v30h-14zM288 76h56v14h-56zM367 8h14v82h-14zM352 24h44v14h-44z" fill="#F5F2EC"/><path d="M22 0h14v14h-14z" fill="#FFB020"/></svg><svg viewBox="-4.166666666666667 -4.166666666666667 207.33333333333334 50.333333333333336" width="125.43" height="30.45" style="display: block; overflow: visible;" x="267.50" y="0.00"><rect x="2.0833333333333335" y="2.0833333333333335" width="194.83333333333334" height="37.833333333333336" rx="18.916666666666668" fill="#FFB020" stroke="#15151A" stroke-width="4.166666666666667"/><text x="99.5" y="21" fill="#15151A" font-family="&quot;JetBrains Mono&quot;,&quot;Geist Mono&quot;,ui-monospace,monospace" font-size="25" font-weight="600" letter-spacing="0.14em" text-anchor="middle" dominant-baseline="central" textLength="163" lengthAdjust="spacing" style="text-transform: uppercase;">PRE-ALPHA</text></svg></svg>