<?xml version="1.0" encoding="UTF-8"?>
<svg viewBox="0 0 476.03 111.00" width="476.03" height="111" xmlns="http://www.w3.org/2000/svg"><svg viewBox="-48.76537180435968 -47 97.53074360871936 94" width="111.63" height="107.58" style="display: block;" x="0.00" y="0.00"><path d="M0.00 -18.00L15.59 -9.00L15.59 9.00L0.00 18.00L-15.59 9.00L-15.59 -9.00Z" fill="rgba(244,244,244,1.0000)"/><path d="M31.18 -18.00L46.77 -9.00L46.77 9.00L31.18 18.00L15.59 9.00L15.59 -9.00Z" fill="#B5F23A"/><path d="M15.59 -45.00L31.18 -36.00L31.18 -18.00L15.59 -9.00L0.00 -18.00L-0.00 -36.00Z" fill="rgba(244,244,244,1.0000)"/><path d="M-15.59 -45.00L0.00 -36.00L0.00 -18.00L-15.59 -9.00L-31.18 -18.00L-31.18 -36.00Z" fill="#2DD4FF"/><path d="M-31.18 -18.00L-15.59 -9.00L-15.59 9.00L-31.18 18.00L-46.77 9.00L-46.77 -9.00Z" fill="rgba(244,244,244,1.0000)"/><path d="M-15.59 9.00L0.00 18.00L0.00 36.00L-15.59 45.00L-31.18 36.00L-31.18 18.00Z" fill="#FF3D8A"/><path d="M15.59 9.00L31.18 18.00L31.18 36.00L15.59 45.00L0.00 36.00L-0.00 18.00Z" fill="rgba(244,244,244,1.0000)"/><path d="M0.00 -18.00L15.59 -9.00L15.59 9.00L0.00 18.00L-15.59 9.00L-15.59 -9.00ZM31.18 -18.00L46.77 -9.00L46.77 9.00L31.18 18.00L15.59 9.00L15.59 -9.00ZM15.59 -45.00L31.18 -36.00L31.18 -18.00L15.59 -9.00L0.00 -18.00L-0.00 -36.00ZM-15.59 -45.00L0.00 -36.00L0.00 -18.00L-15.59 -9.00L-31.18 -18.00L-31.18 -36.00ZM-31.18 -18.00L-15.59 -9.00L-15.59 9.00L-31.18 18.00L-46.77 9.00L-46.77 -9.00ZM-15.59 9.00L0.00 18.00L0.00 36.00L-15.59 45.00L-31.18 36.00L-31.18 18.00ZM15.59 9.00L31.18 18.00L31.18 36.00L15.59 45.00L0.00 36.00L-0.00 18.00Z" fill="none" stroke="rgba(68,68,68,1.0000)" stroke-width="4" stroke-linejoin="miter"/></svg><svg viewBox="0 0 396 114" width="339.29" height="97.67" style="display: block;" x="136.74" y="13.32"><path d="M0 0h14v90h-14zM22 24h14v66h-14zM44 24h56v14h-56zM44 24h14v66h-14zM86 24h14v66h-14zM44 76h56v14h-56zM86 90h14v24h-14zM44 100h56v14h-56zM108 0h14v90h-14zM108 24h56v14h-56zM150 24h14v66h-14zM187 8h14v82h-14zM172 24h44v14h-44zM224 24h14v66h-14zM224 24h56v14h-56zM266 24h14v66h-14zM288 24h14v66h-14zM288 24h56v14h-56zM288 50h56v14h-56zM330 24h14v30h-14zM288 76h56v14h-56zM367 8h14v82h-14zM352 24h44v14h-44z" fill="#15151A"/><path d="M22 0h14v14h-14z" fill="#FFB020"/></svg></svg>